<?xml version="1.0" encoding="iso-8859-1"?>
<!-- Uploaded to: SVG Repo, www.svgrepo.com, Generator: SVG Repo Mixer Tools -->
<svg fill="#000000" height="800px" width="800px" version="1.1" id="Layer_1" xmlns="http://www.w3.org/2000/svg" xmlns:xlink="http://www.w3.org/1999/xlink" 
	 viewBox="0 0 512 512" xml:space="preserve">
<g>
	<g>
		<path d="M450.783,111.304C450.783,49.931,408.341,0,356.174,0c-52.167,0-94.609,49.931-94.609,111.304
			c0,54.673,33.681,100.265,77.913,109.569V256h-16.696c-9.22,0-16.696,7.475-16.696,16.696v189.217
			c0,27.618,22.469,50.087,50.087,50.087c27.618,0,50.087-22.469,50.087-50.087V272.696c0-9.22-7.475-16.696-16.696-16.696H372.87
			v-35.127C417.102,211.57,450.783,165.977,450.783,111.304z M372.87,461.913c0,9.206-7.49,16.696-16.696,16.696
			c-9.206,0-16.696-7.49-16.696-16.696V356.174h33.391V461.913z M372.87,322.783h-33.391v-33.391h33.391V322.783z M356.174,189.217
			c-33.755,0-61.217-34.952-61.217-77.913s27.462-77.913,61.217-77.913c33.755,0,61.217,34.952,61.217,77.913
			C417.391,154.266,389.929,189.217,356.174,189.217z"/>
	</g>
</g>
<g>
	<g>
		<path d="M211.478,0c-9.22,0-16.696,7.475-16.696,16.696v94.609h-33.391V16.696c0-9.22-7.475-16.696-16.696-16.696
			S128,7.475,128,16.696v94.609H94.609V16.696C94.609,7.475,87.133,0,77.913,0c-9.22,0-16.696,7.475-16.696,16.696V139.13
			c0,40.313,28.725,74.042,66.783,81.799V256h-16.696c-9.22,0-16.696,7.475-16.696,16.696v189.217
			c0,27.618,22.469,50.087,50.087,50.087c27.618,0,50.087-22.469,50.087-50.087V272.696c0-9.22-7.475-16.696-16.696-16.696h-16.696
			v-35.071c38.057-7.756,66.783-41.484,66.783-81.799V16.696C228.174,7.475,220.699,0,211.478,0z M161.391,461.913
			c0,9.206-7.49,16.696-16.696,16.696c-9.206,0-16.696-7.49-16.696-16.696V356.174h33.391V461.913z M161.391,322.783H128v-33.391
			h33.391V322.783z M144.696,189.217c-25.737,0-46.992-19.514-49.771-44.522h99.542
			C191.688,169.704,170.433,189.217,144.696,189.217z"/>
	</g>
</g>
</svg>